<svg width="1024" height="1024" viewBox="0 0 1024 1024" fill="none" xmlns="http://www.w3.org/2000/svg">
  <!-- Background circle -->
  <circle cx="512" cy="512" r="512" fill="#263D9A"/>
  
  <!-- Church building -->
  <path d="M300 700 L724 700 L724 400 L512 200 L300 400 Z" fill="white"/>
  
  <!-- Church roof -->
  <path d="M250 400 L512 150 L774 400 L724 400 L512 200 L300 400 Z" fill="#FFD700"/>
  
  <!-- Church door -->
  <rect x="470" y="500" width="84" height="200" fill="#8B4513"/>
  <rect x="480" y="510" width="64" height="180" fill="#D2691E"/>
  
  <!-- Church windows -->
  <circle cx="400" cy="450" r="30" fill="#87CEEB"/>
  <circle cx="624" cy="450" r="30" fill="#87CEEB"/>
  
  <!-- Cross on top -->
  <rect x="502" y="150" width="20" height="100" fill="#FFD700"/>
  <rect x="462" y="170" width="100" height="20" fill="#FFD700"/>
  
  <!-- Bell -->
  <circle cx="512" cy="350" r="25" fill="#FFD700"/>
  <circle cx="512" cy="350" r="15" fill="#8B4513"/>
  
  <!-- Clock hands -->
  <line x1="512" y1="350" x2="512" y2="330" stroke="#8B4513" stroke-width="3"/>
  <line x1="512" y1="350" x2="530" y2="350" stroke="#8B4513" stroke-width="3"/>
</svg> 